<mxfile host="app.diagrams.net" agent="Mozilla/5.0 (Windows NT 10.0; Win64; x64) AppleWebKit/537.36 (KHTML, like Gecko) Chrome/129.0.0.0 Safari/537.36" version="24.8.0">
  <diagram id="C5RBs43oDa-KdzZeNtuy" name="Page-1">
    <mxGraphModel dx="1076" dy="547" grid="1" gridSize="10" guides="1" tooltips="1" connect="1" arrows="1" fold="1" page="1" pageScale="1" pageWidth="827" pageHeight="1169" math="0" shadow="0">
      <root>
        <mxCell id="WIyWlLk6GJQsqaUBKTNV-0" />
        <mxCell id="WIyWlLk6GJQsqaUBKTNV-1" parent="WIyWlLk6GJQsqaUBKTNV-0" />
        <mxCell id="WIyWlLk6GJQsqaUBKTNV-2" value="" style="rounded=0;html=1;jettySize=auto;orthogonalLoop=1;fontSize=11;endArrow=block;endFill=0;endSize=8;strokeWidth=1;shadow=0;labelBackgroundColor=none;edgeStyle=orthogonalEdgeStyle;" parent="WIyWlLk6GJQsqaUBKTNV-1" source="WIyWlLk6GJQsqaUBKTNV-3" edge="1">
          <mxGeometry relative="1" as="geometry">
            <mxPoint x="400" y="70" as="targetPoint" />
          </mxGeometry>
        </mxCell>
        <mxCell id="WIyWlLk6GJQsqaUBKTNV-3" value="Welcome&lt;div&gt;Name&lt;/div&gt;" style="rounded=1;whiteSpace=wrap;html=1;fontSize=12;glass=0;strokeWidth=1;shadow=0;" parent="WIyWlLk6GJQsqaUBKTNV-1" vertex="1">
          <mxGeometry x="340" width="120" height="40" as="geometry" />
        </mxCell>
        <mxCell id="EZz4u7kP4SdFqRR7eTQJ-1" value="Start Game" style="rounded=1;whiteSpace=wrap;html=1;" vertex="1" parent="WIyWlLk6GJQsqaUBKTNV-1">
          <mxGeometry x="355" y="50" width="90" height="40" as="geometry" />
        </mxCell>
        <mxCell id="EZz4u7kP4SdFqRR7eTQJ-3" value="End Game" style="rounded=1;whiteSpace=wrap;html=1;" vertex="1" parent="WIyWlLk6GJQsqaUBKTNV-1">
          <mxGeometry x="270" y="70" width="80" height="30" as="geometry" />
        </mxCell>
        <mxCell id="EZz4u7kP4SdFqRR7eTQJ-18" style="edgeStyle=orthogonalEdgeStyle;rounded=0;orthogonalLoop=1;jettySize=auto;html=1;exitX=0;exitY=1;exitDx=0;exitDy=0;entryX=1;entryY=0.5;entryDx=0;entryDy=0;" edge="1" parent="WIyWlLk6GJQsqaUBKTNV-1" source="EZz4u7kP4SdFqRR7eTQJ-9" target="EZz4u7kP4SdFqRR7eTQJ-12">
          <mxGeometry relative="1" as="geometry" />
        </mxCell>
        <mxCell id="EZz4u7kP4SdFqRR7eTQJ-19" style="edgeStyle=orthogonalEdgeStyle;rounded=0;orthogonalLoop=1;jettySize=auto;html=1;exitX=1;exitY=1;exitDx=0;exitDy=0;entryX=0;entryY=0.5;entryDx=0;entryDy=0;" edge="1" parent="WIyWlLk6GJQsqaUBKTNV-1" source="EZz4u7kP4SdFqRR7eTQJ-9" target="EZz4u7kP4SdFqRR7eTQJ-11">
          <mxGeometry relative="1" as="geometry" />
        </mxCell>
        <mxCell id="EZz4u7kP4SdFqRR7eTQJ-9" value="Play" style="rhombus;whiteSpace=wrap;html=1;" vertex="1" parent="WIyWlLk6GJQsqaUBKTNV-1">
          <mxGeometry x="360" y="110" width="80" height="70" as="geometry" />
        </mxCell>
        <mxCell id="EZz4u7kP4SdFqRR7eTQJ-10" value="" style="endArrow=classic;html=1;rounded=0;entryX=0.5;entryY=0;entryDx=0;entryDy=0;exitX=0.5;exitY=1;exitDx=0;exitDy=0;" edge="1" parent="WIyWlLk6GJQsqaUBKTNV-1" source="EZz4u7kP4SdFqRR7eTQJ-1" target="EZz4u7kP4SdFqRR7eTQJ-9">
          <mxGeometry width="50" height="50" relative="1" as="geometry">
            <mxPoint x="390" y="310" as="sourcePoint" />
            <mxPoint x="440" y="260" as="targetPoint" />
          </mxGeometry>
        </mxCell>
        <mxCell id="EZz4u7kP4SdFqRR7eTQJ-35" style="edgeStyle=orthogonalEdgeStyle;rounded=0;orthogonalLoop=1;jettySize=auto;html=1;exitX=1;exitY=0.25;exitDx=0;exitDy=0;entryX=0;entryY=0.5;entryDx=0;entryDy=0;" edge="1" parent="WIyWlLk6GJQsqaUBKTNV-1" source="EZz4u7kP4SdFqRR7eTQJ-11" target="EZz4u7kP4SdFqRR7eTQJ-32">
          <mxGeometry relative="1" as="geometry" />
        </mxCell>
        <mxCell id="EZz4u7kP4SdFqRR7eTQJ-44" style="edgeStyle=orthogonalEdgeStyle;rounded=0;orthogonalLoop=1;jettySize=auto;html=1;exitX=0;exitY=0.5;exitDx=0;exitDy=0;entryX=1;entryY=0.5;entryDx=0;entryDy=0;" edge="1" parent="WIyWlLk6GJQsqaUBKTNV-1" source="EZz4u7kP4SdFqRR7eTQJ-11" target="EZz4u7kP4SdFqRR7eTQJ-12">
          <mxGeometry relative="1" as="geometry" />
        </mxCell>
        <mxCell id="EZz4u7kP4SdFqRR7eTQJ-11" value="Explore Tunnel" style="rounded=1;whiteSpace=wrap;html=1;" vertex="1" parent="WIyWlLk6GJQsqaUBKTNV-1">
          <mxGeometry x="440" y="170" width="80" height="30" as="geometry" />
        </mxCell>
        <mxCell id="EZz4u7kP4SdFqRR7eTQJ-23" style="edgeStyle=orthogonalEdgeStyle;rounded=0;orthogonalLoop=1;jettySize=auto;html=1;exitX=0.5;exitY=1;exitDx=0;exitDy=0;entryX=0.5;entryY=0;entryDx=0;entryDy=0;" edge="1" parent="WIyWlLk6GJQsqaUBKTNV-1" source="EZz4u7kP4SdFqRR7eTQJ-12" target="EZz4u7kP4SdFqRR7eTQJ-22">
          <mxGeometry relative="1" as="geometry" />
        </mxCell>
        <mxCell id="EZz4u7kP4SdFqRR7eTQJ-12" value="Drink Me" style="rounded=1;whiteSpace=wrap;html=1;" vertex="1" parent="WIyWlLk6GJQsqaUBKTNV-1">
          <mxGeometry x="280" y="170" width="80" height="30" as="geometry" />
        </mxCell>
        <mxCell id="EZz4u7kP4SdFqRR7eTQJ-30" style="edgeStyle=orthogonalEdgeStyle;rounded=0;orthogonalLoop=1;jettySize=auto;html=1;exitX=0.5;exitY=0;exitDx=0;exitDy=0;" edge="1" parent="WIyWlLk6GJQsqaUBKTNV-1" source="EZz4u7kP4SdFqRR7eTQJ-20" target="EZz4u7kP4SdFqRR7eTQJ-3">
          <mxGeometry relative="1" as="geometry" />
        </mxCell>
        <mxCell id="EZz4u7kP4SdFqRR7eTQJ-20" value="Leave Key" style="rounded=1;whiteSpace=wrap;html=1;" vertex="1" parent="WIyWlLk6GJQsqaUBKTNV-1">
          <mxGeometry x="270" y="120" width="80" height="30" as="geometry" />
        </mxCell>
        <mxCell id="EZz4u7kP4SdFqRR7eTQJ-21" style="edgeStyle=orthogonalEdgeStyle;rounded=0;orthogonalLoop=1;jettySize=auto;html=1;exitX=0.5;exitY=0;exitDx=0;exitDy=0;entryX=0.637;entryY=1.113;entryDx=0;entryDy=0;entryPerimeter=0;" edge="1" parent="WIyWlLk6GJQsqaUBKTNV-1" source="EZz4u7kP4SdFqRR7eTQJ-12" target="EZz4u7kP4SdFqRR7eTQJ-20">
          <mxGeometry relative="1" as="geometry" />
        </mxCell>
        <mxCell id="EZz4u7kP4SdFqRR7eTQJ-27" style="edgeStyle=orthogonalEdgeStyle;rounded=0;orthogonalLoop=1;jettySize=auto;html=1;entryX=1;entryY=0.5;entryDx=0;entryDy=0;exitX=0;exitY=0.25;exitDx=0;exitDy=0;" edge="1" parent="WIyWlLk6GJQsqaUBKTNV-1" source="EZz4u7kP4SdFqRR7eTQJ-22" target="EZz4u7kP4SdFqRR7eTQJ-24">
          <mxGeometry relative="1" as="geometry" />
        </mxCell>
        <mxCell id="EZz4u7kP4SdFqRR7eTQJ-29" style="edgeStyle=orthogonalEdgeStyle;rounded=0;orthogonalLoop=1;jettySize=auto;html=1;exitX=0;exitY=0.75;exitDx=0;exitDy=0;entryX=1;entryY=0.5;entryDx=0;entryDy=0;" edge="1" parent="WIyWlLk6GJQsqaUBKTNV-1" source="EZz4u7kP4SdFqRR7eTQJ-22" target="EZz4u7kP4SdFqRR7eTQJ-26">
          <mxGeometry relative="1" as="geometry" />
        </mxCell>
        <mxCell id="EZz4u7kP4SdFqRR7eTQJ-43" style="edgeStyle=orthogonalEdgeStyle;rounded=0;orthogonalLoop=1;jettySize=auto;html=1;exitX=1;exitY=0.5;exitDx=0;exitDy=0;entryX=0;entryY=0.5;entryDx=0;entryDy=0;" edge="1" parent="WIyWlLk6GJQsqaUBKTNV-1" source="EZz4u7kP4SdFqRR7eTQJ-22" target="EZz4u7kP4SdFqRR7eTQJ-42">
          <mxGeometry relative="1" as="geometry" />
        </mxCell>
        <mxCell id="EZz4u7kP4SdFqRR7eTQJ-22" value="Take Key" style="rounded=1;whiteSpace=wrap;html=1;" vertex="1" parent="WIyWlLk6GJQsqaUBKTNV-1">
          <mxGeometry x="280" y="220" width="80" height="30" as="geometry" />
        </mxCell>
        <mxCell id="EZz4u7kP4SdFqRR7eTQJ-24" value="Look for Rabbit" style="rounded=1;whiteSpace=wrap;html=1;" vertex="1" parent="WIyWlLk6GJQsqaUBKTNV-1">
          <mxGeometry x="160" y="210" width="80" height="30" as="geometry" />
        </mxCell>
        <mxCell id="EZz4u7kP4SdFqRR7eTQJ-26" value="Rest" style="rounded=1;whiteSpace=wrap;html=1;" vertex="1" parent="WIyWlLk6GJQsqaUBKTNV-1">
          <mxGeometry x="160" y="160" width="80" height="30" as="geometry" />
        </mxCell>
        <mxCell id="EZz4u7kP4SdFqRR7eTQJ-39" style="edgeStyle=orthogonalEdgeStyle;rounded=0;orthogonalLoop=1;jettySize=auto;html=1;exitX=0.5;exitY=0;exitDx=0;exitDy=0;entryX=1;entryY=0.5;entryDx=0;entryDy=0;" edge="1" parent="WIyWlLk6GJQsqaUBKTNV-1" source="EZz4u7kP4SdFqRR7eTQJ-32" target="EZz4u7kP4SdFqRR7eTQJ-37">
          <mxGeometry relative="1" as="geometry">
            <Array as="points">
              <mxPoint x="580" y="120" />
              <mxPoint x="580" y="85" />
            </Array>
          </mxGeometry>
        </mxCell>
        <mxCell id="EZz4u7kP4SdFqRR7eTQJ-45" style="edgeStyle=orthogonalEdgeStyle;rounded=0;orthogonalLoop=1;jettySize=auto;html=1;exitX=0.25;exitY=1;exitDx=0;exitDy=0;entryX=1;entryY=0.5;entryDx=0;entryDy=0;" edge="1" parent="WIyWlLk6GJQsqaUBKTNV-1" source="EZz4u7kP4SdFqRR7eTQJ-32" target="EZz4u7kP4SdFqRR7eTQJ-42">
          <mxGeometry relative="1" as="geometry" />
        </mxCell>
        <mxCell id="EZz4u7kP4SdFqRR7eTQJ-32" value="Call For Help" style="rounded=1;whiteSpace=wrap;html=1;" vertex="1" parent="WIyWlLk6GJQsqaUBKTNV-1">
          <mxGeometry x="550" y="120" width="80" height="30" as="geometry" />
        </mxCell>
        <mxCell id="EZz4u7kP4SdFqRR7eTQJ-33" value="End Game" style="rounded=1;whiteSpace=wrap;html=1;" vertex="1" parent="WIyWlLk6GJQsqaUBKTNV-1">
          <mxGeometry x="550" width="80" height="30" as="geometry" />
        </mxCell>
        <mxCell id="EZz4u7kP4SdFqRR7eTQJ-41" style="edgeStyle=orthogonalEdgeStyle;rounded=0;orthogonalLoop=1;jettySize=auto;html=1;exitX=0.5;exitY=0;exitDx=0;exitDy=0;entryX=0;entryY=0.5;entryDx=0;entryDy=0;" edge="1" parent="WIyWlLk6GJQsqaUBKTNV-1" source="EZz4u7kP4SdFqRR7eTQJ-37" target="EZz4u7kP4SdFqRR7eTQJ-33">
          <mxGeometry relative="1" as="geometry" />
        </mxCell>
        <mxCell id="EZz4u7kP4SdFqRR7eTQJ-37" value="Go Home" style="rounded=1;whiteSpace=wrap;html=1;" vertex="1" parent="WIyWlLk6GJQsqaUBKTNV-1">
          <mxGeometry x="490" y="70" width="80" height="30" as="geometry" />
        </mxCell>
        <mxCell id="EZz4u7kP4SdFqRR7eTQJ-42" value="Explore Garden" style="rounded=1;whiteSpace=wrap;html=1;" vertex="1" parent="WIyWlLk6GJQsqaUBKTNV-1">
          <mxGeometry x="380" y="220" width="80" height="30" as="geometry" />
        </mxCell>
      </root>
    </mxGraphModel>
  </diagram>
</mxfile>
